<svg width="485" height="484" viewBox="0 0 485 484" fill="none" xmlns="http://www.w3.org/2000/svg">
<path fill-rule="evenodd" clip-rule="evenodd" d="M167 136.484C185.195 160.695 214.573 176.417 247.717 176.417C302.946 176.417 347.717 132.765 347.717 78.9169C347.717 46.469 331.46 17.7232 306.455 0C371.133 6.17473 421.717 60.6557 421.717 126.951C421.717 197.386 364.618 254.485 294.183 254.485C226.955 254.485 171.875 202.467 167 136.484Z" fill="url(#paint0_linear_22_935)"/>
<rect x="175.295" y="357" width="4.2246" height="79" rx="2.1123" fill="#CCE1F0"/>
<rect x="188.229" y="357" width="4.2246" height="19.6444" rx="2.1123" transform="rotate(45 188.229 357)" fill="#CCE1F0"/>
<rect width="4.2246" height="19.6444" rx="2.1123" transform="matrix(-0.707107 0.707107 0.707107 0.707107 166.56 357)" fill="#CCE1F0"/>
<rect width="4.2246" height="19.6444" rx="2.1123" transform="matrix(0.707107 -0.707107 -0.707107 -0.707107 188.44 435.979)" fill="#CCE1F0"/>
<rect x="166.771" y="435.979" width="4.2246" height="19.6444" rx="2.1123" transform="rotate(-135 166.771 435.979)" fill="#CCE1F0"/>
<rect x="217" y="394.297" width="4.2246" height="79" rx="2.1123" transform="rotate(90 217 394.297)" fill="#CCE1F0"/>
<rect x="217" y="407.229" width="4.2246" height="19.6444" rx="2.1123" transform="rotate(135 217 407.229)" fill="#CCE1F0"/>
<rect width="4.2246" height="19.6444" rx="2.1123" transform="matrix(-0.707107 -0.707107 -0.707107 0.707107 217 385.56)" fill="#CCE1F0"/>
<rect width="4.2246" height="19.6444" rx="2.1123" transform="matrix(0.707107 0.707107 0.707107 -0.707107 138.02 407.44)" fill="#CCE1F0"/>
<rect x="138.02" y="385.771" width="4.2246" height="19.6444" rx="2.1123" transform="rotate(-45 138.02 385.771)" fill="#CCE1F0"/>
<rect x="203.872" y="367.011" width="4.2246" height="79" rx="2.1123" transform="rotate(45 203.872 367.011)" fill="#CCE1F0"/>
<rect x="213.017" y="376.155" width="4.2246" height="19.6444" rx="2.1123" transform="rotate(90 213.017 376.155)" fill="#CCE1F0"/>
<rect width="4.2246" height="19.6444" rx="2.1123" transform="matrix(-1 -4.21468e-08 -4.21468e-08 1 197.695 360.833)" fill="#CCE1F0"/>
<rect width="4.2246" height="19.6444" rx="2.1123" transform="matrix(1 4.21468e-08 4.21468e-08 -1 157.32 432.153)" fill="#CCE1F0"/>
<rect x="141.997" y="416.829" width="4.2246" height="19.6444" rx="2.1123" transform="rotate(-90 141.997 416.829)" fill="#CCE1F0"/>
<rect x="207.003" y="422.649" width="4.2246" height="79" rx="2.1123" transform="rotate(135 207.003 422.649)" fill="#CCE1F0"/>
<rect x="197.857" y="431.794" width="4.2246" height="19.6444" rx="2.1123" transform="rotate(-180 197.857 431.794)" fill="#CCE1F0"/>
<rect width="4.2246" height="19.6444" rx="2.1123" transform="matrix(0 -1 -1 0 213.18 416.472)" fill="#CCE1F0"/>
<rect width="4.2246" height="19.6444" rx="2.1123" transform="matrix(0 1 1 0 141.861 376.096)" fill="#CCE1F0"/>
<rect x="157.184" y="360.773" width="4.2246" height="19.6444" rx="2.1123" fill="#CCE1F0"/>
<rect x="329.793" y="387" width="5.18717" height="95" rx="2.59358" fill="#CCE1F0"/>
<rect width="5.13397" height="23.873" rx="2.56698" transform="matrix(0.714434 0.699703 -0.714434 0.699703 345.673 387)" fill="#CCE1F0"/>
<rect width="5.13397" height="23.873" rx="2.56698" transform="matrix(-0.714434 0.699703 0.714434 0.699703 319.066 387)" fill="#CCE1F0"/>
<rect width="5.13397" height="23.873" rx="2.56698" transform="matrix(0.714434 -0.699703 -0.714434 -0.699703 345.933 481.976)" fill="#CCE1F0"/>
<rect width="5.13397" height="23.873" rx="2.56698" transform="matrix(-0.714434 -0.699703 0.714434 -0.699703 319.326 481.976)" fill="#CCE1F0"/>
<rect x="381" y="431.851" width="5.08021" height="97" rx="2.54011" transform="rotate(90 381 431.851)" fill="#CCE1F0"/>
<rect width="5.13397" height="23.873" rx="2.56698" transform="matrix(-0.714434 0.699703 -0.714434 -0.699703 381 447.403)" fill="#CCE1F0"/>
<rect width="5.13397" height="23.873" rx="2.56698" transform="matrix(-0.714434 -0.699703 -0.714434 0.699703 381 421.345)" fill="#CCE1F0"/>
<rect width="5.13397" height="23.873" rx="2.56698" transform="matrix(0.714434 0.699703 0.714434 -0.699703 284.025 447.656)" fill="#CCE1F0"/>
<rect width="5.13397" height="23.873" rx="2.56698" transform="matrix(0.714434 -0.699703 0.714434 0.699703 284.025 421.599)" fill="#CCE1F0"/>
<rect width="5.13397" height="96.0052" rx="2.56698" transform="matrix(0.714434 0.699703 -0.714434 0.699703 364.881 399.038)" fill="#CCE1F0"/>
<rect x="376.11" y="410.034" width="5.18717" height="23.623" rx="2.56698" transform="rotate(90 376.11 410.034)" fill="#CCE1F0"/>
<rect width="5.13397" height="23.873" rx="2.56698" transform="matrix(-1.01036 -4.21468e-08 -4.21468e-08 0.98953 357.296 391.609)" fill="#CCE1F0"/>
<rect width="5.13397" height="23.873" rx="2.56698" transform="matrix(1.01036 4.21468e-08 4.21468e-08 -0.98953 307.722 477.372)" fill="#CCE1F0"/>
<rect x="288.908" y="458.947" width="5.18717" height="23.623" rx="2.56698" transform="rotate(-90 288.908 458.947)" fill="#CCE1F0"/>
<rect width="5.13397" height="96.0052" rx="2.56698" transform="matrix(-0.714434 0.699703 -0.714434 -0.699703 368.726 465.944)" fill="#CCE1F0"/>
<rect x="357.497" y="476.942" width="5.18717" height="23.623" rx="2.56698" transform="rotate(-180 357.497 476.942)" fill="#CCE1F0"/>
<rect width="5.13397" height="23.873" rx="2.56698" transform="matrix(0 -0.98953 -1.01036 0 376.311 458.516)" fill="#CCE1F0"/>
<rect width="5.13397" height="23.873" rx="2.56698" transform="matrix(0 0.98953 1.01036 0 288.741 409.963)" fill="#CCE1F0"/>
<rect x="307.555" y="391.536" width="5.18717" height="23.623" rx="2.56698" fill="#CCE1F0"/>
<rect x="268.772" y="364" width="2.35294" height="44" rx="1.17647" fill="#CCE1F0"/>
<rect x="275.976" y="364" width="2.35294" height="10.9412" rx="1.17647" transform="rotate(45 275.976 364)" fill="#CCE1F0"/>
<rect width="2.35294" height="10.9412" rx="1.17647" transform="matrix(-0.707107 0.707107 0.707107 0.707107 263.906 364)" fill="#CCE1F0"/>
<rect width="2.35294" height="10.9412" rx="1.17647" transform="matrix(0.707107 -0.707107 -0.707107 -0.707107 276.093 407.988)" fill="#CCE1F0"/>
<rect x="264.024" y="407.988" width="2.35294" height="10.9412" rx="1.17647" transform="rotate(-135 264.024 407.988)" fill="#CCE1F0"/>
<rect x="292" y="384.772" width="2.35294" height="44" rx="1.17647" transform="rotate(90 292 384.772)" fill="#CCE1F0"/>
<rect x="292" y="391.975" width="2.35294" height="10.9412" rx="1.17647" transform="rotate(135 292 391.975)" fill="#CCE1F0"/>
<rect width="2.35294" height="10.9412" rx="1.17647" transform="matrix(-0.707107 -0.707107 -0.707107 0.707107 292 379.907)" fill="#CCE1F0"/>
<rect width="2.35294" height="10.9412" rx="1.17647" transform="matrix(0.707107 0.707107 0.707107 -0.707107 248.011 392.093)" fill="#CCE1F0"/>
<rect x="248.011" y="380.024" width="2.35294" height="10.9412" rx="1.17647" transform="rotate(-45 248.011 380.024)" fill="#CCE1F0"/>
<rect x="284.688" y="369.574" width="2.35294" height="44" rx="1.17647" transform="rotate(45 284.688 369.574)" fill="#CCE1F0"/>
<rect x="289.782" y="374.667" width="2.35294" height="10.9412" rx="1.17647" transform="rotate(90 289.782 374.667)" fill="#CCE1F0"/>
<rect width="2.35294" height="10.9412" rx="1.17647" transform="matrix(-1 -4.21468e-08 -4.21468e-08 1 281.248 366.134)" fill="#CCE1F0"/>
<rect width="2.35294" height="10.9412" rx="1.17647" transform="matrix(1 4.21468e-08 4.21468e-08 -1 258.761 405.856)" fill="#CCE1F0"/>
<rect x="250.227" y="397.321" width="2.35294" height="10.9412" rx="1.17647" transform="rotate(-90 250.227 397.321)" fill="#CCE1F0"/>
<rect x="286.432" y="400.564" width="2.35294" height="44" rx="1.17647" transform="rotate(135 286.432 400.564)" fill="#CCE1F0"/>
<rect x="281.338" y="405.658" width="2.35294" height="10.9412" rx="1.17647" transform="rotate(-180 281.338 405.658)" fill="#CCE1F0"/>
<rect width="2.35294" height="10.9412" rx="1.17647" transform="matrix(0 -1 -1 0 289.873 397.123)" fill="#CCE1F0"/>
<rect width="2.35294" height="10.9412" rx="1.17647" transform="matrix(0 1 1 0 250.15 374.636)" fill="#CCE1F0"/>
<rect x="258.685" y="366.102" width="2.35294" height="10.9412" rx="1.17647" fill="#CCE1F0"/>
<rect x="251.3" y="441" width="2.29947" height="43" rx="1.14973" fill="#CCE1F0"/>
<rect x="258.34" y="441" width="2.29947" height="10.6925" rx="1.14973" transform="rotate(45 258.34 441)" fill="#CCE1F0"/>
<rect width="2.29947" height="10.6925" rx="1.14973" transform="matrix(-0.707107 0.707107 0.707107 0.707107 246.545 441)" fill="#CCE1F0"/>
<rect width="2.29947" height="10.6925" rx="1.14973" transform="matrix(0.707107 -0.707107 -0.707107 -0.707107 258.455 483.988)" fill="#CCE1F0"/>
<rect x="246.66" y="483.988" width="2.29947" height="10.6925" rx="1.14973" transform="rotate(-135 246.66 483.988)" fill="#CCE1F0"/>
<rect x="274" y="461.301" width="2.29947" height="43" rx="1.14973" transform="rotate(90 274 461.301)" fill="#CCE1F0"/>
<rect x="274" y="468.34" width="2.29947" height="10.6925" rx="1.14973" transform="rotate(135 274 468.34)" fill="#CCE1F0"/>
<rect width="2.29947" height="10.6925" rx="1.14973" transform="matrix(-0.707107 -0.707107 -0.707107 0.707107 274 456.546)" fill="#CCE1F0"/>
<rect width="2.29947" height="10.6925" rx="1.14973" transform="matrix(0.707107 0.707107 0.707107 -0.707107 231.011 468.455)" fill="#CCE1F0"/>
<rect x="231.011" y="456.66" width="2.29947" height="10.6925" rx="1.14973" transform="rotate(-45 231.011 456.66)" fill="#CCE1F0"/>
<rect x="266.854" y="446.448" width="2.29947" height="43" rx="1.14973" transform="rotate(45 266.854 446.448)" fill="#CCE1F0"/>
<rect x="271.832" y="451.426" width="2.29947" height="10.6925" rx="1.14973" transform="rotate(90 271.832 451.426)" fill="#CCE1F0"/>
<rect width="2.29947" height="10.6925" rx="1.14973" transform="matrix(-1 -4.21468e-08 -4.21468e-08 1 263.492 443.085)" fill="#CCE1F0"/>
<rect width="2.29947" height="10.6925" rx="1.14973" transform="matrix(1 4.21468e-08 4.21468e-08 -1 241.516 481.905)" fill="#CCE1F0"/>
<rect x="233.176" y="473.564" width="2.29947" height="10.6925" rx="1.14973" transform="rotate(-90 233.176 473.564)" fill="#CCE1F0"/>
<rect x="268.559" y="476.732" width="2.29947" height="43" rx="1.14973" transform="rotate(135 268.559 476.732)" fill="#CCE1F0"/>
<rect x="263.581" y="481.711" width="2.29946" height="10.6925" rx="1.14973" transform="rotate(-180 263.581 481.711)" fill="#CCE1F0"/>
<rect width="2.29946" height="10.6925" rx="1.14973" transform="matrix(0 -1 -1 0 271.921 473.37)" fill="#CCE1F0"/>
<rect width="2.29946" height="10.6925" rx="1.14973" transform="matrix(0 1 1 0 233.102 451.394)" fill="#CCE1F0"/>
<rect x="241.442" y="443.054" width="2.29946" height="10.6925" rx="1.14973" fill="#CCE1F0"/>
<rect x="233.914" y="411" width="1.12299" height="21" rx="0.561497" fill="#CCE1F0"/>
<rect x="237.352" y="411" width="1.12299" height="5.22193" rx="0.561497" transform="rotate(45 237.352 411)" fill="#CCE1F0"/>
<rect width="1.12299" height="5.22193" rx="0.561497" transform="matrix(-0.707107 0.707107 0.707107 0.707107 231.592 411)" fill="#CCE1F0"/>
<rect width="1.12299" height="5.22193" rx="0.561497" transform="matrix(0.707107 -0.707107 -0.707107 -0.707107 237.408 431.994)" fill="#CCE1F0"/>
<rect x="231.648" y="431.994" width="1.12299" height="5.22193" rx="0.561497" transform="rotate(-135 231.648 431.994)" fill="#CCE1F0"/>
<rect x="245" y="420.914" width="1.12299" height="21" rx="0.561497" transform="rotate(90 245 420.914)" fill="#CCE1F0"/>
<rect x="245" y="424.352" width="1.12299" height="5.22193" rx="0.561497" transform="rotate(135 245 424.352)" fill="#CCE1F0"/>
<rect width="1.12299" height="5.22193" rx="0.561497" transform="matrix(-0.707107 -0.707107 -0.707107 0.707107 245 418.592)" fill="#CCE1F0"/>
<rect width="1.12299" height="5.22193" rx="0.561497" transform="matrix(0.707107 0.707107 0.707107 -0.707107 224.005 424.408)" fill="#CCE1F0"/>
<rect x="224.005" y="418.647" width="1.12299" height="5.22193" rx="0.561497" transform="rotate(-45 224.005 418.647)" fill="#CCE1F0"/>
<rect x="241.51" y="413.661" width="1.12299" height="21" rx="0.561497" transform="rotate(45 241.51 413.661)" fill="#CCE1F0"/>
<rect x="243.941" y="416.092" width="1.12299" height="5.22193" rx="0.561497" transform="rotate(90 243.941 416.092)" fill="#CCE1F0"/>
<rect width="1.12299" height="5.22193" rx="0.561497" transform="matrix(-1 -4.21468e-08 -4.21468e-08 1 239.868 412.019)" fill="#CCE1F0"/>
<rect width="1.12299" height="5.22193" rx="0.561497" transform="matrix(1 4.21468e-08 4.21468e-08 -1 229.135 430.977)" fill="#CCE1F0"/>
<rect x="225.062" y="426.904" width="1.12299" height="5.22193" rx="0.561497" transform="rotate(-90 225.062 426.904)" fill="#CCE1F0"/>
<rect x="242.343" y="428.451" width="1.12299" height="21" rx="0.561497" transform="rotate(135 242.343 428.451)" fill="#CCE1F0"/>
<rect x="239.912" y="430.883" width="1.12299" height="5.22192" rx="0.561497" transform="rotate(-180 239.912 430.883)" fill="#CCE1F0"/>
<rect width="1.12299" height="5.22192" rx="0.561497" transform="matrix(0 -1 -1 0 243.985 426.809)" fill="#CCE1F0"/>
<rect width="1.12299" height="5.22192" rx="0.561497" transform="matrix(0 1 1 0 225.026 416.076)" fill="#CCE1F0"/>
<rect x="229.1" y="412.004" width="1.12299" height="5.22192" rx="0.561497" fill="#CCE1F0"/>
<rect x="381.635" y="367" width="1.65775" height="31" rx="0.828877" fill="#CCE1F0"/>
<rect x="386.71" y="367" width="1.65775" height="7.70856" rx="0.828877" transform="rotate(45 386.71 367)" fill="#CCE1F0"/>
<rect width="1.65775" height="7.70856" rx="0.828877" transform="matrix(-0.707107 0.707107 0.707107 0.707107 378.207 367)" fill="#CCE1F0"/>
<rect width="1.65775" height="7.70856" rx="0.828877" transform="matrix(0.707107 -0.707107 -0.707107 -0.707107 386.793 397.991)" fill="#CCE1F0"/>
<rect x="378.29" y="397.991" width="1.65775" height="7.70856" rx="0.828877" transform="rotate(-135 378.29 397.991)" fill="#CCE1F0"/>
<rect x="398" y="381.635" width="1.65775" height="31" rx="0.828877" transform="rotate(90 398 381.635)" fill="#CCE1F0"/>
<rect x="398" y="386.709" width="1.65775" height="7.70856" rx="0.828877" transform="rotate(135 398 386.709)" fill="#CCE1F0"/>
<rect width="1.65775" height="7.70856" rx="0.828877" transform="matrix(-0.707107 -0.707107 -0.707107 0.707107 398 378.206)" fill="#CCE1F0"/>
<rect width="1.65775" height="7.70856" rx="0.828877" transform="matrix(0.707107 0.707107 0.707107 -0.707107 367.008 386.793)" fill="#CCE1F0"/>
<rect x="367.008" y="378.288" width="1.65775" height="7.70856" rx="0.828877" transform="rotate(-45 367.008 378.288)" fill="#CCE1F0"/>
<rect x="392.849" y="370.928" width="1.65775" height="31" rx="0.828877" transform="rotate(45 392.849 370.928)" fill="#CCE1F0"/>
<rect x="396.438" y="374.516" width="1.65775" height="7.70856" rx="0.828877" transform="rotate(90 396.438 374.516)" fill="#CCE1F0"/>
<rect width="1.65775" height="7.70856" rx="0.828877" transform="matrix(-1 -4.21468e-08 -4.21468e-08 1 390.425 368.503)" fill="#CCE1F0"/>
<rect width="1.65775" height="7.70856" rx="0.828877" transform="matrix(1 4.21468e-08 4.21468e-08 -1 374.582 396.489)" fill="#CCE1F0"/>
<rect x="368.568" y="390.476" width="1.65775" height="7.70856" rx="0.828877" transform="rotate(-90 368.568 390.476)" fill="#CCE1F0"/>
<rect x="394.077" y="392.762" width="1.65775" height="31" rx="0.828877" transform="rotate(135 394.077 392.762)" fill="#CCE1F0"/>
<rect x="390.488" y="396.352" width="1.65775" height="7.70855" rx="0.828877" transform="rotate(-180 390.488 396.352)" fill="#CCE1F0"/>
<rect width="1.65775" height="7.70855" rx="0.828877" transform="matrix(0 -1 -1 0 396.5 390.339)" fill="#CCE1F0"/>
<rect width="1.65775" height="7.70855" rx="0.828877" transform="matrix(0 1 1 0 368.515 374.494)" fill="#CCE1F0"/>
<rect x="374.527" y="368.482" width="1.65775" height="7.70855" rx="0.828877" fill="#CCE1F0"/>
<g filter="url(#filter0_bd_22_935)">
<path fill-rule="evenodd" clip-rule="evenodd" d="M348 387H166H154C140.792 387 128.263 384.09 117.02 378.876C62.7293 360.19 24 311.331 24 254C24 180.546 87.5756 121 166 121C222.644 121 271.541 152.064 294.333 196.996C310.551 190.592 328.759 187 348 187C415.931 187 471 231.772 471 287C471 288.975 470.93 290.936 470.791 292.883C470.929 294.904 471 296.944 471 299C471 347.601 431.601 387 383 387H348Z" fill="url(#paint1_linear_22_935)" fill-opacity="0.3" shape-rendering="crispEdges"/>
</g>
<defs>
<filter id="filter0_bd_22_935" x="-11" y="86" width="517" height="336" filterUnits="userSpaceOnUse" color-interpolation-filters="sRGB">
<feFlood flood-opacity="0" result="BackgroundImageFix"/>
<feGaussianBlur in="BackgroundImage" stdDeviation="17.5"/>
<feComposite in2="SourceAlpha" operator="in" result="effect1_backgroundBlur_22_935"/>
<feColorMatrix in="SourceAlpha" type="matrix" values="0 0 0 0 0 0 0 0 0 0 0 0 0 0 0 0 0 0 127 0" result="hardAlpha"/>
<feOffset dx="-5" dy="5"/>
<feGaussianBlur stdDeviation="9.5"/>
<feComposite in2="hardAlpha" operator="out"/>
<feColorMatrix type="matrix" values="0 0 0 0 0.433953 0 0 0 0 0.50598 0 0 0 0 0.536849 0 0 0 0.25 0"/>
<feBlend mode="normal" in2="effect1_backgroundBlur_22_935" result="effect2_dropShadow_22_935"/>
<feBlend mode="normal" in="SourceGraphic" in2="effect2_dropShadow_22_935" result="shape"/>
</filter>
<linearGradient id="paint0_linear_22_935" x1="296.717" y1="-0.583131" x2="296.717" y2="254.485" gradientUnits="userSpaceOnUse">
<stop offset="0.0196026" stop-color="#FFF9BE"/>
<stop offset="1" stop-color="#F9DF21"/>
</linearGradient>
<linearGradient id="paint1_linear_22_935" x1="86" y1="151" x2="414" y2="375" gradientUnits="userSpaceOnUse">
<stop stop-color="#94DCF2"/>
<stop offset="1" stop-color="#94DCF2" stop-opacity="0.5"/>
</linearGradient>
</defs>
</svg>
