<svg width="250" height="200" viewBox="0 0 485 423" fill="none" xmlns="http://www.w3.org/2000/svg">
<rect x="167" y="265" width="19" height="92.3899" rx="9.5" fill="url(#paint0_linear_22_1118)" fill-opacity="0.6"/>
<rect x="277" y="318.522" width="19" height="92.3899" rx="9.5" fill="url(#paint1_linear_22_1118)" fill-opacity="0.6"/>
<rect x="222" y="318.522" width="19" height="60.5031" rx="9.5" fill="url(#paint2_linear_22_1118)" fill-opacity="0.6"/>
<rect x="332" y="307.894" width="19" height="60.5031" rx="9.5" fill="url(#paint3_linear_22_1118)" fill-opacity="0.6"/>
<rect x="167" y="377.39" width="19" height="33.522" rx="9.5" fill="url(#paint4_linear_22_1118)" fill-opacity="0.6"/>
<rect x="277" y="265" width="19" height="33.522" rx="9.5" fill="url(#paint5_linear_22_1118)" fill-opacity="0.6"/>
<rect x="222" y="399.025" width="19" height="23.7107" rx="9.5" fill="url(#paint6_linear_22_1118)" fill-opacity="0.6"/>
<rect x="332" y="265" width="19" height="22.8931" rx="9.5" fill="url(#paint7_linear_22_1118)" fill-opacity="0.6"/>
<rect x="222" y="265" width="19" height="33.522" rx="9.5" fill="url(#paint8_linear_22_1118)" fill-opacity="0.6"/>
<rect x="332" y="388.396" width="19" height="33.522" rx="9.5" fill="url(#paint9_linear_22_1118)" fill-opacity="0.6"/>
<g filter="url(#filter0_bd_22_1118)">
<path fill-rule="evenodd" clip-rule="evenodd" d="M348 280H166H154C140.792 280 128.263 277.09 117.02 271.876C62.7293 253.19 24 204.331 24 147C24 73.5461 87.5756 14 166 14C222.644 14 271.541 45.0639 294.333 89.9955C310.551 83.5917 328.759 80 348 80C415.931 80 471 124.772 471 180C471 181.975 470.93 183.936 470.791 185.883C470.929 187.904 471 189.944 471 192C471 240.601 431.601 280 383 280H348Z" fill="url(#paint10_linear_22_1118)" fill-opacity="0.3" shape-rendering="crispEdges"/>
</g>
<defs>
<filter id="filter0_bd_22_1118" x="-11" y="-21" width="517" height="336" filterUnits="userSpaceOnUse" color-interpolation-filters="sRGB">
<feFlood flood-opacity="0" result="BackgroundImageFix"/>
<feGaussianBlur in="BackgroundImage" stdDeviation="17.5"/>
<feComposite in2="SourceAlpha" operator="in" result="effect1_backgroundBlur_22_1118"/>
<feColorMatrix in="SourceAlpha" type="matrix" values="0 0 0 0 0 0 0 0 0 0 0 0 0 0 0 0 0 0 127 0" result="hardAlpha"/>
<feOffset dx="-5" dy="5"/>
<feGaussianBlur stdDeviation="9.5"/>
<feComposite in2="hardAlpha" operator="out"/>
<feColorMatrix type="matrix" values="0 0 0 0 0.433953 0 0 0 0 0.50598 0 0 0 0 0.536849 0 0 0 0.25 0"/>
<feBlend mode="normal" in2="effect1_backgroundBlur_22_1118" result="effect2_dropShadow_22_1118"/>
<feBlend mode="normal" in="SourceGraphic" in2="effect2_dropShadow_22_1118" result="shape"/>
</filter>
<linearGradient id="paint0_linear_22_1118" x1="172.151" y1="312.681" x2="203.055" y2="346.62" gradientUnits="userSpaceOnUse">
<stop stop-color="#4286F4"/>
<stop offset="1" stop-color="#4286F4" stop-opacity="0.5"/>
</linearGradient>
<linearGradient id="paint1_linear_22_1118" x1="282.151" y1="366.204" x2="313.055" y2="400.143" gradientUnits="userSpaceOnUse">
<stop stop-color="#4286F4"/>
<stop offset="1" stop-color="#4286F4" stop-opacity="0.5"/>
</linearGradient>
<linearGradient id="paint2_linear_22_1118" x1="227.151" y1="349.747" x2="245.034" y2="379.737" gradientUnits="userSpaceOnUse">
<stop stop-color="#4286F4"/>
<stop offset="1" stop-color="#4286F4" stop-opacity="0.5"/>
</linearGradient>
<linearGradient id="paint3_linear_22_1118" x1="337.151" y1="339.118" x2="355.034" y2="369.108" gradientUnits="userSpaceOnUse">
<stop stop-color="#4286F4"/>
<stop offset="1" stop-color="#4286F4" stop-opacity="0.5"/>
</linearGradient>
<linearGradient id="paint4_linear_22_1118" x1="172.151" y1="394.69" x2="178.86" y2="414.997" gradientUnits="userSpaceOnUse">
<stop stop-color="#4286F4"/>
<stop offset="1" stop-color="#4286F4" stop-opacity="0.5"/>
</linearGradient>
<linearGradient id="paint5_linear_22_1118" x1="282.151" y1="282.3" x2="288.86" y2="302.608" gradientUnits="userSpaceOnUse">
<stop stop-color="#4286F4"/>
<stop offset="1" stop-color="#4286F4" stop-opacity="0.5"/>
</linearGradient>
<linearGradient id="paint6_linear_22_1118" x1="227.151" y1="411.262" x2="230.681" y2="426.369" gradientUnits="userSpaceOnUse">
<stop stop-color="#4286F4"/>
<stop offset="1" stop-color="#4286F4" stop-opacity="0.5"/>
</linearGradient>
<linearGradient id="paint7_linear_22_1118" x1="337.151" y1="276.815" x2="340.454" y2="291.452" gradientUnits="userSpaceOnUse">
<stop stop-color="#4286F4"/>
<stop offset="1" stop-color="#4286F4" stop-opacity="0.5"/>
</linearGradient>
<linearGradient id="paint8_linear_22_1118" x1="227.151" y1="282.3" x2="233.86" y2="302.608" gradientUnits="userSpaceOnUse">
<stop stop-color="#4286F4"/>
<stop offset="1" stop-color="#4286F4" stop-opacity="0.5"/>
</linearGradient>
<linearGradient id="paint9_linear_22_1118" x1="337.151" y1="405.697" x2="343.86" y2="426.004" gradientUnits="userSpaceOnUse">
<stop stop-color="#4286F4"/>
<stop offset="1" stop-color="#4286F4" stop-opacity="0.5"/>
</linearGradient>
<linearGradient id="paint10_linear_22_1118" x1="86" y1="44" x2="414" y2="268" gradientUnits="userSpaceOnUse">
<stop stop-color="#94DCF2"/>
<stop offset="1" stop-color="#94DCF2" stop-opacity="0.5"/>
</linearGradient>
</defs>
</svg>
