<svg width="250" height="200" viewBox="0 0 485 377" fill="none" xmlns="http://www.w3.org/2000/svg">
<rect x="175.295" y="250" width="4.2246" height="79" rx="2.1123" fill="#CCE1F0"/>
<rect x="188.229" y="250" width="4.2246" height="19.6444" rx="2.1123" transform="rotate(45 188.229 250)" fill="#CCE1F0"/>
<rect width="4.2246" height="19.6444" rx="2.1123" transform="matrix(-0.707107 0.707107 0.707107 0.707107 166.56 250)" fill="#CCE1F0"/>
<rect width="4.2246" height="19.6444" rx="2.1123" transform="matrix(0.707107 -0.707107 -0.707107 -0.707107 188.44 328.979)" fill="#CCE1F0"/>
<rect x="166.771" y="328.979" width="4.2246" height="19.6444" rx="2.1123" transform="rotate(-135 166.771 328.979)" fill="#CCE1F0"/>
<rect x="217" y="287.297" width="4.2246" height="79" rx="2.1123" transform="rotate(90 217 287.297)" fill="#CCE1F0"/>
<rect x="217" y="300.229" width="4.2246" height="19.6444" rx="2.1123" transform="rotate(135 217 300.229)" fill="#CCE1F0"/>
<rect width="4.2246" height="19.6444" rx="2.1123" transform="matrix(-0.707107 -0.707107 -0.707107 0.707107 217 278.56)" fill="#CCE1F0"/>
<rect width="4.2246" height="19.6444" rx="2.1123" transform="matrix(0.707107 0.707107 0.707107 -0.707107 138.02 300.44)" fill="#CCE1F0"/>
<rect x="138.02" y="278.771" width="4.2246" height="19.6444" rx="2.1123" transform="rotate(-45 138.02 278.771)" fill="#CCE1F0"/>
<rect x="203.872" y="260.011" width="4.2246" height="79" rx="2.1123" transform="rotate(45 203.872 260.011)" fill="#CCE1F0"/>
<rect x="213.017" y="269.155" width="4.2246" height="19.6444" rx="2.1123" transform="rotate(90 213.017 269.155)" fill="#CCE1F0"/>
<rect width="4.2246" height="19.6444" rx="2.1123" transform="matrix(-1 -4.21468e-08 -4.21468e-08 1 197.695 253.833)" fill="#CCE1F0"/>
<rect width="4.2246" height="19.6444" rx="2.1123" transform="matrix(1 4.21468e-08 4.21468e-08 -1 157.32 325.153)" fill="#CCE1F0"/>
<rect x="141.997" y="309.829" width="4.2246" height="19.6444" rx="2.1123" transform="rotate(-90 141.997 309.829)" fill="#CCE1F0"/>
<rect x="207.003" y="315.649" width="4.2246" height="79" rx="2.1123" transform="rotate(135 207.003 315.649)" fill="#CCE1F0"/>
<rect x="197.857" y="324.794" width="4.2246" height="19.6444" rx="2.1123" transform="rotate(-180 197.857 324.794)" fill="#CCE1F0"/>
<rect width="4.2246" height="19.6444" rx="2.1123" transform="matrix(0 -1 -1 0 213.18 309.472)" fill="#CCE1F0"/>
<rect width="4.2246" height="19.6444" rx="2.1123" transform="matrix(0 1 1 0 141.861 269.096)" fill="#CCE1F0"/>
<rect x="157.184" y="253.773" width="4.2246" height="19.6444" rx="2.1123" fill="#CCE1F0"/>
<rect x="329.793" y="280" width="5.18717" height="95" rx="2.59358" fill="#CCE1F0"/>
<rect width="5.13397" height="23.873" rx="2.56698" transform="matrix(0.714434 0.699703 -0.714434 0.699703 345.673 280)" fill="#CCE1F0"/>
<rect width="5.13397" height="23.873" rx="2.56698" transform="matrix(-0.714434 0.699703 0.714434 0.699703 319.066 280)" fill="#CCE1F0"/>
<rect width="5.13397" height="23.873" rx="2.56698" transform="matrix(0.714434 -0.699703 -0.714434 -0.699703 345.933 374.976)" fill="#CCE1F0"/>
<rect width="5.13397" height="23.873" rx="2.56698" transform="matrix(-0.714434 -0.699703 0.714434 -0.699703 319.326 374.976)" fill="#CCE1F0"/>
<rect x="381" y="324.851" width="5.08021" height="97" rx="2.54011" transform="rotate(90 381 324.851)" fill="#CCE1F0"/>
<rect width="5.13397" height="23.873" rx="2.56698" transform="matrix(-0.714434 0.699703 -0.714434 -0.699703 381 340.403)" fill="#CCE1F0"/>
<rect width="5.13397" height="23.873" rx="2.56698" transform="matrix(-0.714434 -0.699703 -0.714434 0.699703 381 314.345)" fill="#CCE1F0"/>
<rect width="5.13397" height="23.873" rx="2.56698" transform="matrix(0.714434 0.699703 0.714434 -0.699703 284.025 340.656)" fill="#CCE1F0"/>
<rect width="5.13397" height="23.873" rx="2.56698" transform="matrix(0.714434 -0.699703 0.714434 0.699703 284.025 314.599)" fill="#CCE1F0"/>
<rect width="5.13397" height="96.0052" rx="2.56698" transform="matrix(0.714434 0.699703 -0.714434 0.699703 364.881 292.038)" fill="#CCE1F0"/>
<rect x="376.11" y="303.034" width="5.18717" height="23.623" rx="2.56698" transform="rotate(90 376.11 303.034)" fill="#CCE1F0"/>
<rect width="5.13397" height="23.873" rx="2.56698" transform="matrix(-1.01036 -4.21468e-08 -4.21468e-08 0.98953 357.296 284.609)" fill="#CCE1F0"/>
<rect width="5.13397" height="23.873" rx="2.56698" transform="matrix(1.01036 4.21468e-08 4.21468e-08 -0.98953 307.722 370.372)" fill="#CCE1F0"/>
<rect x="288.908" y="351.947" width="5.18717" height="23.623" rx="2.56698" transform="rotate(-90 288.908 351.947)" fill="#CCE1F0"/>
<rect width="5.13397" height="96.0052" rx="2.56698" transform="matrix(-0.714434 0.699703 -0.714434 -0.699703 368.726 358.944)" fill="#CCE1F0"/>
<rect x="357.497" y="369.942" width="5.18717" height="23.623" rx="2.56698" transform="rotate(-180 357.497 369.942)" fill="#CCE1F0"/>
<rect width="5.13397" height="23.873" rx="2.56698" transform="matrix(0 -0.98953 -1.01036 0 376.311 351.516)" fill="#CCE1F0"/>
<rect width="5.13397" height="23.873" rx="2.56698" transform="matrix(0 0.98953 1.01036 0 288.741 302.963)" fill="#CCE1F0"/>
<rect x="307.555" y="284.536" width="5.18717" height="23.623" rx="2.56698" fill="#CCE1F0"/>
<rect x="268.772" y="257" width="2.35294" height="44" rx="1.17647" fill="#CCE1F0"/>
<rect x="275.976" y="257" width="2.35294" height="10.9412" rx="1.17647" transform="rotate(45 275.976 257)" fill="#CCE1F0"/>
<rect width="2.35294" height="10.9412" rx="1.17647" transform="matrix(-0.707107 0.707107 0.707107 0.707107 263.906 257)" fill="#CCE1F0"/>
<rect width="2.35294" height="10.9412" rx="1.17647" transform="matrix(0.707107 -0.707107 -0.707107 -0.707107 276.093 300.988)" fill="#CCE1F0"/>
<rect x="264.024" y="300.988" width="2.35294" height="10.9412" rx="1.17647" transform="rotate(-135 264.024 300.988)" fill="#CCE1F0"/>
<rect x="292" y="277.772" width="2.35294" height="44" rx="1.17647" transform="rotate(90 292 277.772)" fill="#CCE1F0"/>
<rect x="292" y="284.975" width="2.35294" height="10.9412" rx="1.17647" transform="rotate(135 292 284.975)" fill="#CCE1F0"/>
<rect width="2.35294" height="10.9412" rx="1.17647" transform="matrix(-0.707107 -0.707107 -0.707107 0.707107 292 272.907)" fill="#CCE1F0"/>
<rect width="2.35294" height="10.9412" rx="1.17647" transform="matrix(0.707107 0.707107 0.707107 -0.707107 248.011 285.093)" fill="#CCE1F0"/>
<rect x="248.011" y="273.024" width="2.35294" height="10.9412" rx="1.17647" transform="rotate(-45 248.011 273.024)" fill="#CCE1F0"/>
<rect x="284.688" y="262.574" width="2.35294" height="44" rx="1.17647" transform="rotate(45 284.688 262.574)" fill="#CCE1F0"/>
<rect x="289.782" y="267.667" width="2.35294" height="10.9412" rx="1.17647" transform="rotate(90 289.782 267.667)" fill="#CCE1F0"/>
<rect width="2.35294" height="10.9412" rx="1.17647" transform="matrix(-1 -4.21468e-08 -4.21468e-08 1 281.248 259.134)" fill="#CCE1F0"/>
<rect width="2.35294" height="10.9412" rx="1.17647" transform="matrix(1 4.21468e-08 4.21468e-08 -1 258.761 298.856)" fill="#CCE1F0"/>
<rect x="250.227" y="290.321" width="2.35294" height="10.9412" rx="1.17647" transform="rotate(-90 250.227 290.321)" fill="#CCE1F0"/>
<rect x="286.432" y="293.564" width="2.35294" height="44" rx="1.17647" transform="rotate(135 286.432 293.564)" fill="#CCE1F0"/>
<rect x="281.338" y="298.658" width="2.35294" height="10.9412" rx="1.17647" transform="rotate(-180 281.338 298.658)" fill="#CCE1F0"/>
<rect width="2.35294" height="10.9412" rx="1.17647" transform="matrix(0 -1 -1 0 289.873 290.123)" fill="#CCE1F0"/>
<rect width="2.35294" height="10.9412" rx="1.17647" transform="matrix(0 1 1 0 250.15 267.636)" fill="#CCE1F0"/>
<rect x="258.685" y="259.102" width="2.35294" height="10.9412" rx="1.17647" fill="#CCE1F0"/>
<rect x="251.3" y="334" width="2.29947" height="43" rx="1.14973" fill="#CCE1F0"/>
<rect x="258.34" y="334" width="2.29947" height="10.6925" rx="1.14973" transform="rotate(45 258.34 334)" fill="#CCE1F0"/>
<rect width="2.29947" height="10.6925" rx="1.14973" transform="matrix(-0.707107 0.707107 0.707107 0.707107 246.545 334)" fill="#CCE1F0"/>
<rect width="2.29947" height="10.6925" rx="1.14973" transform="matrix(0.707107 -0.707107 -0.707107 -0.707107 258.455 376.988)" fill="#CCE1F0"/>
<rect x="246.66" y="376.988" width="2.29947" height="10.6925" rx="1.14973" transform="rotate(-135 246.66 376.988)" fill="#CCE1F0"/>
<rect x="274" y="354.301" width="2.29947" height="43" rx="1.14973" transform="rotate(90 274 354.301)" fill="#CCE1F0"/>
<rect x="274" y="361.34" width="2.29947" height="10.6925" rx="1.14973" transform="rotate(135 274 361.34)" fill="#CCE1F0"/>
<rect width="2.29947" height="10.6925" rx="1.14973" transform="matrix(-0.707107 -0.707107 -0.707107 0.707107 274 349.546)" fill="#CCE1F0"/>
<rect width="2.29947" height="10.6925" rx="1.14973" transform="matrix(0.707107 0.707107 0.707107 -0.707107 231.011 361.455)" fill="#CCE1F0"/>
<rect x="231.011" y="349.66" width="2.29947" height="10.6925" rx="1.14973" transform="rotate(-45 231.011 349.66)" fill="#CCE1F0"/>
<rect x="266.854" y="339.448" width="2.29947" height="43" rx="1.14973" transform="rotate(45 266.854 339.448)" fill="#CCE1F0"/>
<rect x="271.832" y="344.426" width="2.29947" height="10.6925" rx="1.14973" transform="rotate(90 271.832 344.426)" fill="#CCE1F0"/>
<rect width="2.29947" height="10.6925" rx="1.14973" transform="matrix(-1 -4.21468e-08 -4.21468e-08 1 263.492 336.085)" fill="#CCE1F0"/>
<rect width="2.29947" height="10.6925" rx="1.14973" transform="matrix(1 4.21468e-08 4.21468e-08 -1 241.516 374.905)" fill="#CCE1F0"/>
<rect x="233.176" y="366.564" width="2.29947" height="10.6925" rx="1.14973" transform="rotate(-90 233.176 366.564)" fill="#CCE1F0"/>
<rect x="268.559" y="369.732" width="2.29947" height="43" rx="1.14973" transform="rotate(135 268.559 369.732)" fill="#CCE1F0"/>
<rect x="263.581" y="374.711" width="2.29946" height="10.6925" rx="1.14973" transform="rotate(-180 263.581 374.711)" fill="#CCE1F0"/>
<rect width="2.29946" height="10.6925" rx="1.14973" transform="matrix(0 -1 -1 0 271.921 366.37)" fill="#CCE1F0"/>
<rect width="2.29946" height="10.6925" rx="1.14973" transform="matrix(0 1 1 0 233.102 344.394)" fill="#CCE1F0"/>
<rect x="241.442" y="336.054" width="2.29946" height="10.6925" rx="1.14973" fill="#CCE1F0"/>
<rect x="233.914" y="304" width="1.12299" height="21" rx="0.561497" fill="#CCE1F0"/>
<rect x="237.352" y="304" width="1.12299" height="5.22193" rx="0.561497" transform="rotate(45 237.352 304)" fill="#CCE1F0"/>
<rect width="1.12299" height="5.22193" rx="0.561497" transform="matrix(-0.707107 0.707107 0.707107 0.707107 231.592 304)" fill="#CCE1F0"/>
<rect width="1.12299" height="5.22193" rx="0.561497" transform="matrix(0.707107 -0.707107 -0.707107 -0.707107 237.408 324.994)" fill="#CCE1F0"/>
<rect x="231.648" y="324.994" width="1.12299" height="5.22193" rx="0.561497" transform="rotate(-135 231.648 324.994)" fill="#CCE1F0"/>
<rect x="245" y="313.914" width="1.12299" height="21" rx="0.561497" transform="rotate(90 245 313.914)" fill="#CCE1F0"/>
<rect x="245" y="317.352" width="1.12299" height="5.22193" rx="0.561497" transform="rotate(135 245 317.352)" fill="#CCE1F0"/>
<rect width="1.12299" height="5.22193" rx="0.561497" transform="matrix(-0.707107 -0.707107 -0.707107 0.707107 245 311.592)" fill="#CCE1F0"/>
<rect width="1.12299" height="5.22193" rx="0.561497" transform="matrix(0.707107 0.707107 0.707107 -0.707107 224.005 317.408)" fill="#CCE1F0"/>
<rect x="224.005" y="311.647" width="1.12299" height="5.22193" rx="0.561497" transform="rotate(-45 224.005 311.647)" fill="#CCE1F0"/>
<rect x="241.51" y="306.661" width="1.12299" height="21" rx="0.561497" transform="rotate(45 241.51 306.661)" fill="#CCE1F0"/>
<rect x="243.941" y="309.092" width="1.12299" height="5.22193" rx="0.561497" transform="rotate(90 243.941 309.092)" fill="#CCE1F0"/>
<rect width="1.12299" height="5.22193" rx="0.561497" transform="matrix(-1 -4.21468e-08 -4.21468e-08 1 239.868 305.019)" fill="#CCE1F0"/>
<rect width="1.12299" height="5.22193" rx="0.561497" transform="matrix(1 4.21468e-08 4.21468e-08 -1 229.135 323.977)" fill="#CCE1F0"/>
<rect x="225.062" y="319.904" width="1.12299" height="5.22193" rx="0.561497" transform="rotate(-90 225.062 319.904)" fill="#CCE1F0"/>
<rect x="242.343" y="321.451" width="1.12299" height="21" rx="0.561497" transform="rotate(135 242.343 321.451)" fill="#CCE1F0"/>
<rect x="239.912" y="323.883" width="1.12299" height="5.22192" rx="0.561497" transform="rotate(-180 239.912 323.883)" fill="#CCE1F0"/>
<rect width="1.12299" height="5.22192" rx="0.561497" transform="matrix(0 -1 -1 0 243.985 319.809)" fill="#CCE1F0"/>
<rect width="1.12299" height="5.22192" rx="0.561497" transform="matrix(0 1 1 0 225.026 309.076)" fill="#CCE1F0"/>
<rect x="229.1" y="305.004" width="1.12299" height="5.22192" rx="0.561497" fill="#CCE1F0"/>
<rect x="381.635" y="260" width="1.65775" height="31" rx="0.828877" fill="#CCE1F0"/>
<rect x="386.71" y="260" width="1.65775" height="7.70856" rx="0.828877" transform="rotate(45 386.71 260)" fill="#CCE1F0"/>
<rect width="1.65775" height="7.70856" rx="0.828877" transform="matrix(-0.707107 0.707107 0.707107 0.707107 378.207 260)" fill="#CCE1F0"/>
<rect width="1.65775" height="7.70856" rx="0.828877" transform="matrix(0.707107 -0.707107 -0.707107 -0.707107 386.793 290.991)" fill="#CCE1F0"/>
<rect x="378.29" y="290.991" width="1.65775" height="7.70856" rx="0.828877" transform="rotate(-135 378.29 290.991)" fill="#CCE1F0"/>
<rect x="398" y="274.635" width="1.65775" height="31" rx="0.828877" transform="rotate(90 398 274.635)" fill="#CCE1F0"/>
<rect x="398" y="279.709" width="1.65775" height="7.70856" rx="0.828877" transform="rotate(135 398 279.709)" fill="#CCE1F0"/>
<rect width="1.65775" height="7.70856" rx="0.828877" transform="matrix(-0.707107 -0.707107 -0.707107 0.707107 398 271.206)" fill="#CCE1F0"/>
<rect width="1.65775" height="7.70856" rx="0.828877" transform="matrix(0.707107 0.707107 0.707107 -0.707107 367.008 279.793)" fill="#CCE1F0"/>
<rect x="367.008" y="271.288" width="1.65775" height="7.70856" rx="0.828877" transform="rotate(-45 367.008 271.288)" fill="#CCE1F0"/>
<rect x="392.849" y="263.928" width="1.65775" height="31" rx="0.828877" transform="rotate(45 392.849 263.928)" fill="#CCE1F0"/>
<rect x="396.438" y="267.516" width="1.65775" height="7.70856" rx="0.828877" transform="rotate(90 396.438 267.516)" fill="#CCE1F0"/>
<rect width="1.65775" height="7.70856" rx="0.828877" transform="matrix(-1 -4.21468e-08 -4.21468e-08 1 390.425 261.503)" fill="#CCE1F0"/>
<rect width="1.65775" height="7.70856" rx="0.828877" transform="matrix(1 4.21468e-08 4.21468e-08 -1 374.582 289.489)" fill="#CCE1F0"/>
<rect x="368.568" y="283.476" width="1.65775" height="7.70856" rx="0.828877" transform="rotate(-90 368.568 283.476)" fill="#CCE1F0"/>
<rect x="394.077" y="285.762" width="1.65775" height="31" rx="0.828877" transform="rotate(135 394.077 285.762)" fill="#CCE1F0"/>
<rect x="390.488" y="289.352" width="1.65775" height="7.70855" rx="0.828877" transform="rotate(-180 390.488 289.352)" fill="#CCE1F0"/>
<rect width="1.65775" height="7.70855" rx="0.828877" transform="matrix(0 -1 -1 0 396.5 283.339)" fill="#CCE1F0"/>
<rect width="1.65775" height="7.70855" rx="0.828877" transform="matrix(0 1 1 0 368.515 267.494)" fill="#CCE1F0"/>
<rect x="374.527" y="261.482" width="1.65775" height="7.70855" rx="0.828877" fill="#CCE1F0"/>
<g filter="url(#filter0_bd_22_778)">
<path fill-rule="evenodd" clip-rule="evenodd" d="M348 280H166H154C140.792 280 128.263 277.09 117.02 271.876C62.7293 253.19 24 204.331 24 147C24 73.5461 87.5756 14 166 14C222.644 14 271.541 45.0639 294.333 89.9955C310.551 83.5917 328.759 80 348 80C415.931 80 471 124.772 471 180C471 181.975 470.93 183.936 470.791 185.883C470.929 187.904 471 189.944 471 192C471 240.601 431.601 280 383 280H348Z" fill="url(#paint0_linear_22_778)" fill-opacity="0.3" shape-rendering="crispEdges"/>
</g>
<defs>
<filter id="filter0_bd_22_778" x="-11" y="-21" width="517" height="336" filterUnits="userSpaceOnUse" color-interpolation-filters="sRGB">
<feFlood flood-opacity="0" result="BackgroundImageFix"/>
<feGaussianBlur in="BackgroundImage" stdDeviation="17.5"/>
<feComposite in2="SourceAlpha" operator="in" result="effect1_backgroundBlur_22_778"/>
<feColorMatrix in="SourceAlpha" type="matrix" values="0 0 0 0 0 0 0 0 0 0 0 0 0 0 0 0 0 0 127 0" result="hardAlpha"/>
<feOffset dx="-5" dy="5"/>
<feGaussianBlur stdDeviation="9.5"/>
<feComposite in2="hardAlpha" operator="out"/>
<feColorMatrix type="matrix" values="0 0 0 0 0.433953 0 0 0 0 0.50598 0 0 0 0 0.536849 0 0 0 0.25 0"/>
<feBlend mode="normal" in2="effect1_backgroundBlur_22_778" result="effect2_dropShadow_22_778"/>
<feBlend mode="normal" in="SourceGraphic" in2="effect2_dropShadow_22_778" result="shape"/>
</filter>
<linearGradient id="paint0_linear_22_778" x1="86" y1="44" x2="414" y2="268" gradientUnits="userSpaceOnUse">
<stop stop-color="#94DCF2"/>
<stop offset="1" stop-color="#94DCF2" stop-opacity="0.5"/>
</linearGradient>
</defs>
</svg>
