<svg width="250" height="200" viewBox="0 0 350 350" fill="none" xmlns="http://www.w3.org/2000/svg">
<ellipse cx="174.434" cy="173.936" rx="76.234" ry="75.7742" fill="url(#paint0_linear_2_262)"/>
<path d="M329.337 166.72C336.843 169.752 336.843 180.379 329.337 183.411L307.649 192.169C305.487 193.042 303.071 193.042 300.909 192.169L279.221 183.411C271.715 180.379 271.715 169.752 279.221 166.72L300.909 157.962C303.071 157.089 305.487 157.089 307.649 157.962L329.337 166.72Z" fill="url(#paint1_linear_2_262)"/>
<path d="M290.058 278.211C293.221 285.661 285.706 293.172 278.254 290.01L256.72 280.873C254.573 279.962 252.863 278.253 251.951 276.106L242.81 254.58C239.647 247.131 247.162 239.619 254.614 242.781L276.148 251.919C278.296 252.83 280.005 254.539 280.917 256.685L290.058 278.211Z" fill="url(#paint2_linear_2_262)"/>
<path d="M182.806 329.316C179.745 336.807 169.122 336.766 166.118 329.251L157.437 307.532C156.571 305.365 156.58 302.947 157.463 300.787L166.311 279.135C169.373 271.644 179.996 271.685 183 279.2L191.681 300.919C192.547 303.086 192.537 305.504 191.655 307.664L182.806 329.316Z" fill="url(#paint3_linear_2_262)"/>
<path d="M71.4452 289.615C63.9817 292.75 56.4943 285.211 59.6847 277.773L68.9039 256.28C69.8233 254.137 71.5392 252.434 73.6899 251.531L95.2573 242.471C102.721 239.336 110.208 246.875 107.018 254.313L97.7986 275.806C96.8792 277.949 95.1633 279.652 93.0126 280.555L71.4452 289.615Z" fill="url(#paint4_linear_2_262)"/>
<path d="M20.741 182.199C13.2583 179.11 13.3404 168.483 20.8699 165.509L42.6243 156.918C44.793 156.062 47.2094 156.081 49.3646 156.97L70.9837 165.896C78.4664 168.985 78.3843 179.612 70.8548 182.586L49.1004 191.177C46.9317 192.033 44.5153 192.015 42.3601 191.125L20.741 182.199Z" fill="url(#paint5_linear_2_262)"/>
<path d="M60.7984 71.1205C57.6893 63.6484 65.2583 56.1915 72.6872 59.4077L94.1546 68.7014C96.2954 69.6282 97.9927 71.3496 98.8886 73.5028L107.873 95.0947C110.982 102.567 103.413 110.024 95.9841 106.808L74.5167 97.5139C72.3759 96.5871 70.6786 94.8656 69.7827 92.7124L60.7984 71.1205Z" fill="url(#paint6_linear_2_262)"/>
<path d="M168.541 20.7613C171.66 13.2936 182.282 13.4167 185.228 20.9547L193.741 42.7405C194.59 44.9139 194.562 47.332 193.663 49.4851L184.648 71.0678C181.529 78.5355 170.906 78.4123 167.961 70.8744L159.447 49.0885C158.598 46.9152 158.626 44.497 159.525 42.344L168.541 20.7613Z" fill="url(#paint7_linear_2_262)"/>
<path d="M279.453 61.2024C286.939 58.1217 294.372 65.7149 291.127 73.1293L281.752 94.5543C280.817 96.6909 279.089 98.3812 276.932 99.269L255.299 108.171C247.813 111.252 240.381 103.659 243.625 96.2444L253 74.8193C253.935 72.6828 255.663 70.9925 257.82 70.1047L279.453 61.2024Z" fill="url(#paint8_linear_2_262)"/>
<defs>
<linearGradient id="paint0_linear_2_262" x1="134.751" y1="231.308" x2="219.512" y2="119.466" gradientUnits="userSpaceOnUse">
<stop stop-color="#EE7200"/>
<stop offset="1" stop-color="#FAE422"/>
</linearGradient>
<linearGradient id="paint1_linear_2_262" x1="269.661" y1="165.454" x2="292.939" y2="209.4" gradientUnits="userSpaceOnUse">
<stop stop-color="#EE7200"/>
<stop offset="1" stop-color="#FAE422"/>
</linearGradient>
<linearGradient id="paint2_linear_2_262" x1="248.755" y1="235.13" x2="234.153" y2="282.666" gradientUnits="userSpaceOnUse">
<stop stop-color="#EE7200"/>
<stop offset="1" stop-color="#FAE422"/>
</linearGradient>
<linearGradient id="paint3_linear_2_262" x1="184.308" y1="269.659" x2="140.27" y2="292.785" gradientUnits="userSpaceOnUse">
<stop stop-color="#EE7200"/>
<stop offset="1" stop-color="#FAE422"/>
</linearGradient>
<linearGradient id="paint4_linear_2_262" x1="114.693" y1="248.485" x2="67.199" y2="233.695" gradientUnits="userSpaceOnUse">
<stop stop-color="#EE7200"/>
<stop offset="1" stop-color="#FAE422"/>
</linearGradient>
<linearGradient id="paint5_linear_2_262" x1="80.4045" y1="183.926" x2="57.4674" y2="139.802" gradientUnits="userSpaceOnUse">
<stop stop-color="#EE7200"/>
<stop offset="1" stop-color="#FAE422"/>
</linearGradient>
<linearGradient id="paint6_linear_2_262" x1="101.787" y1="114.501" x2="116.733" y2="67.0726" gradientUnits="userSpaceOnUse">
<stop stop-color="#EE7200"/>
<stop offset="1" stop-color="#FAE422"/>
</linearGradient>
<linearGradient id="paint7_linear_2_262" x1="166.579" y1="80.4049" x2="210.793" y2="57.6192" gradientUnits="userSpaceOnUse">
<stop stop-color="#EE7200"/>
<stop offset="1" stop-color="#FAE422"/>
</linearGradient>
<linearGradient id="paint8_linear_2_262" x1="235.908" y1="102.017" x2="283.293" y2="117.151" gradientUnits="userSpaceOnUse">
<stop stop-color="#EE7200"/>
<stop offset="1" stop-color="#FAE422"/>
</linearGradient>
</defs>
</svg>
